# xmcd CD database file
#
# Track frame offsets:
#	150
#	12527
#	27035
#	42180
#	59560
#	75377
#	90945
#	100450
#	113895
#	123865
#	137022
#	154395
#	173225
#	185062
#	201967
#	216105
#	230562
#	243685
#	256542
#	269957
#
# Disc length: 3782 seconds
#
# Revision: 0
# Processed by: cddbd v1.5.1PL2 Copyright (c) Steve Scherf et al.
# Submitted via: CDex 1.51
#
DISCID=1d0ec414
DTITLE=As Marcianas - Raízes Sertanejas
DYEAR=1998
DGENRE=Country
TTITLE0=NOITES MAL DORMIDAS
TTITLE1=ALGUEM QUE ME LEMBRA VOCE
TTITLE2=DESAMOR
TTITLE3=SEDUCAO
TTITLE4=DEPOIS DE AMANHA
TTITLE5=MARCAS
TTITLE6=CORACAO MACHUCADO
TTITLE7=XONADO DE NOVO
TTITLE8=ASSIM NAO PRESTA
TTITLE9=CHUVAS DE VERAO
TTITLE10=VOCE E MINHA VIDA
TTITLE11=NOSSA MELODIA PREFERIDA
TTITLE12=FALSOS AMIGOS
TTITLE13=MORRENDO DE AMOR POR VOCE
TTITLE14=AMANTES
TTITLE15=RAIZES
TTITLE16=MENINO DOCURA
TTITLE17=PEDACOS DE AMOR
TTITLE18=CARRETA FEITICEIRA
TTITLE19=O MESMO HOMEM
EXTD=YEAR: 1998
EXTT0=
EXTT1=
EXTT2=
EXTT3=
EXTT4=
EXTT5=
EXTT6=
EXTT7=
EXTT8=
EXTT9=
EXTT10=
EXTT11=
EXTT12=
EXTT13=
EXTT14=
EXTT15=
EXTT16=
EXTT17=
EXTT18=
EXTT19=
PLAYORDER=
